HIERARCHY
ROOT hip
{
	OFFSET 0.000000 0.000000 0.000000
	CHANNELS 6 Xposition Yposition Zposition Xrotation Zrotation Yrotation 
	JOINT abdomen
	{
		OFFSET 0.000000 3.422050 0.000000
		CHANNELS 3 Xrotation Zrotation Yrotation 
		JOINT chest
		{
			OFFSET 0.000000 8.486693 -0.684411
			CHANNELS 3 Xrotation Zrotation Yrotation 
			JOINT neck
			{
				OFFSET 0.000000 10.266162 -0.273764
				CHANNELS 3 Xrotation Zrotation Yrotation 
				JOINT head
				{
					OFFSET 0.000000 3.148285 0.000000
					CHANNELS 3 Xrotation Zrotation Yrotation 
					End Site
					{
						OFFSET 0.000000 3.148289 0.000000
					}
				}
			}
			JOINT lCollar
			{
				OFFSET 3.422053 6.707223 -0.821293
				CHANNELS 3 Yrotation Zrotation Xrotation 
				JOINT lShldr
				{
					OFFSET 3.285171 0.000000 0.000000
					CHANNELS 3 Zrotation Yrotation Xrotation 
					JOINT lForeArm
					{
						OFFSET 10.129278 0.000000 0.000000
						CHANNELS 3 Yrotation Zrotation Xrotation 
						JOINT lHand
						{
							OFFSET 8.486692 0.000000 0.000000
							CHANNELS 3 Zrotation Yrotation Xrotation 
							End Site
							{
								OFFSET 4.106464 0.000000 0.000000
							}
						}
					}
				}
			}
			JOINT rCollar
			{
				OFFSET -3.558935 6.707223 -0.821293
				CHANNELS 3 Yrotation Zrotation Xrotation 
				JOINT rShldr
				{
					OFFSET -3.148289 0.000000 0.000000
					CHANNELS 3 Zrotation Yrotation Xrotation 
					JOINT rForeArm
					{
						OFFSET -10.266159 0.000000 0.000000
						CHANNELS 3 Yrotation Zrotation Xrotation 
						JOINT rHand
						{
							OFFSET -8.349810 0.000000 0.000000
							CHANNELS 3 Zrotation Yrotation Xrotation 
							End Site
							{
								OFFSET -4.106464 0.000000 0.000000
							}
						}
					}
				}
			}
		}
	}
	JOINT lThigh
	{
		OFFSET 5.338403 -1.642589 1.368821
		CHANNELS 3 Xrotation Zrotation Yrotation 
		JOINT lShin
		{
			OFFSET -2.053232 -20.121670 0.000000
			CHANNELS 3 Xrotation Zrotation Yrotation 
			JOINT lFoot
			{
				OFFSET 0.000000 -19.300380 -1.231939
				CHANNELS 3 Xrotation Yrotation Zrotation 
				End Site
				{
					OFFSET 0.000000 -2.463878 4.653993
				}
			}
		}
	}
	JOINT rThigh
	{
		OFFSET -5.338403 -1.642589 1.368821
		CHANNELS 3 Xrotation Zrotation Yrotation 
		JOINT rShin
		{
			OFFSET 2.053232 -20.121670 0.000000
			CHANNELS 3 Xrotation Zrotation Yrotation 
			JOINT rFoot
			{
				OFFSET 0.000000 -19.300380 -1.231939
				CHANNELS 3 Xrotation Yrotation Zrotation 
				End Site
				{
					OFFSET 0.000000 -2.463878 4.653993
				}
			}
		}
	}
}
MOTION
Frames: 17
Frame Time: 0.050000
0.000000 43.528500 0.000000 0.000000 0.000000 0.000000 0.000000 0.000000 0.000000 0.000000 0.000000 0.000000 0.000000 0.000000 0.000000 0.000000 0.000000 0.000000 0.000000 0.000000 0.000000 0.000000 0.000000 0.000000 0.000000 0.000000 0.000000 0.000000 0.000000 0.000000 0.000000 0.000000 0.000000 0.000000 0.000000 0.000000 0.000000 0.000000 0.000000 0.000000 0.000000 0.000000 0.000000 0.000000 0.000000 0.000000 0.000000 0.000000 0.000000 0.000000 0.000000 0.000000 0.000000 0.000000 0.000000 0.000000 0.000000 0.000000 0.000000 0.000000 
0.000000 4.831345 0.000000 -90.001877 0.000000 0.000000 18.363047 0.084687 -0.140408 6.929635 0.944329 -0.985166 17.998348 0.000000 0.000000 8.998567 0.000000 0.000000 5.904551 18.990278 1.402866 -50.248962 45.737122 17.654751 -75.001434 -0.002089 33.998486 -7.002601 0.199413 23.599224 -10.497901 -9.403898 0.813205 34.900845 -24.200773 22.745375 57.828869 5.253834 34.830776 6.998461 -0.202121 23.599018 -136.876984 19.793257 0.481563 10.233138 -1.965097 -0.072379 13.400978 2.310024 5.480430 -140.733795 -10.071712 -0.391076 40.370846 2.326321 0.164064 19.032698 -1.776397 -5.014713 
0.000000 4.831345 0.000000 -90.001884 0.000000 0.000000 18.363047 0.084687 -0.140408 6.929635 0.944329 -0.985166 17.641191 0.000000 0.000000 8.998567 0.000000 0.000000 5.904551 18.990278 1.402866 -50.248962 45.737122 17.654751 -75.001434 -0.002087 33.998486 -7.155914 0.237303 23.737202 -10.620619 -9.567882 0.806457 34.900845 -24.200773 22.745375 57.828876 5.253834 34.830780 7.158226 -0.202656 23.809006 -136.876984 19.793257 0.481564 10.233138 -1.965097 -0.072379 13.400978 2.310024 5.480430 -140.733780 -10.071713 -0.391077 40.370846 2.326321 0.164064 19.051994 -1.640144 -5.141147 
0.000000 4.831345 0.000000 -90.001862 0.000000 0.000000 18.363047 0.084687 -0.140408 6.929635 0.944329 -0.985166 17.283989 0.000000 0.000000 8.998566 0.000000 0.000000 5.904551 18.990278 1.402866 -50.248962 45.737122 17.654751 -75.001434 -0.002090 33.998486 -7.309142 0.275564 23.875086 -10.743423 -9.731858 0.799348 34.900845 -24.200771 22.745375 57.828869 5.253834 34.830776 7.317998 -0.203777 24.019011 -136.876984 19.793255 0.481564 10.233138 -1.965097 -0.072379 13.400978 2.310024 5.480430 -140.733795 -10.071712 -0.391076 40.370846 2.326321 0.164064 19.071587 -1.503929 -5.267621 
0.000000 4.831345 0.000000 -90.001877 0.000000 0.000000 18.363047 0.084687 -0.140408 6.929635 0.944329 -0.985166 16.926756 0.000000 0.000000 8.998567 0.000000 0.000000 5.904551 18.990278 1.402866 -50.248962 45.737122 17.654751 -75.001434 -0.002089 33.998486 -7.462284 0.314194 24.012871 -10.866307 -9.895823 0.791879 34.900845 -24.200771 22.745375 57.828869 5.253834 34.830776 7.477774 -0.205484 24.229019 -136.876984 19.793257 0.481563 10.233138 -1.965097 -0.072379 13.400978 2.310024 5.480430 -140.733795 -10.071712 -0.391076 40.370846 2.326321 0.164064 19.091480 -1.367755 -5.394138 
0.000000 4.831345 0.000000 -90.001884 0.000000 0.000000 18.363047 0.084687 -0.140408 6.929635 0.944329 -0.985166 16.569494 0.000000 0.000000 8.998568 0.000000 0.000000 5.904551 18.990278 1.402866 -50.248962 45.737122 17.654751 -75.001434 -0.002087 33.998486 -7.615336 0.353194 24.150555 -10.989285 -10.059777 0.784048 34.900845 -24.200773 22.745375 57.828869 5.253834 34.830776 7.637549 -0.207776 24.439030 -136.876984 19.793257 0.481563 10.233138 -1.965097 -0.072379 13.400978 2.310024 5.480430 -140.733795 -10.071712 -0.391076 40.370850 2.326322 0.164064 19.111673 -1.231622 -5.520697 
0.000000 4.831345 0.000000 -90.001877 0.000000 0.000000 18.363047 0.084687 -0.140408 6.929635 0.944329 -0.985166 16.212212 0.000000 0.000000 8.998567 0.000000 0.000000 5.904551 18.990278 1.402866 -50.248959 45.737118 17.654751 -75.001434 -0.002088 33.998486 -7.768297 0.392562 24.288136 -11.112347 -10.223717 0.775856 34.900845 -24.200773 22.745375 57.828869 5.253831 34.830772 7.797320 -0.210655 24.649042 -136.876968 19.793253 0.481563 10.233138 -1.965097 -0.072379 13.400977 2.310024 5.480430 -140.733795 -10.071712 -0.391076 40.370846 2.326321 0.164064 19.132168 -1.095532 -5.647301 
0.000000 4.831345 0.000000 -90.001877 0.000000 0.000000 18.363047 0.084687 -0.140408 6.929635 0.944329 -0.985166 15.854915 0.000000 0.000000 8.998567 0.000000 0.000000 5.904551 18.990278 1.402866 -50.248962 45.737122 17.654751 -75.001434 -0.002090 33.998486 -7.921167 0.432298 24.425617 -11.235497 -10.387641 0.767302 34.900845 -24.200773 22.745375 57.828869 5.253834 34.830776 7.957081 -0.214119 24.859045 -136.876968 19.793255 0.481564 10.233138 -1.965097 -0.072379 13.400978 2.310024 5.480430 -140.733795 -10.071712 -0.391076 40.370838 2.326321 0.164064 19.152962 -0.959485 -5.773950 
0.000000 4.831345 0.000000 -90.001877 0.000000 0.000000 18.363047 0.084687 -0.140408 6.929635 0.944329 -0.985166 15.497611 0.000000 0.000000 8.998567 0.000000 0.000000 5.904551 18.990278 1.402866 -50.248962 45.737122 17.654751 -75.001434 -0.002089 33.998486 -8.073943 0.472400 24.562992 -11.358738 -10.551545 0.758385 34.900845 -24.200773 22.745375 57.828869 5.253834 34.830776 8.116833 -0.218168 25.069050 -136.876984 19.793257 0.481563 10.233138 -1.965097 -0.072379 13.400978 2.310024 5.480430 -140.733795 -10.071712 -0.391076 40.370846 2.326321 0.164064 19.174053 -0.823485 -5.900642 
0.000000 4.831345 0.000000 -90.001877 0.000000 0.000000 18.363047 0.084687 -0.140408 6.929636 0.944329 -0.985166 15.140306 0.000000 0.000000 8.998567 0.000000 0.000000 5.904551 18.990278 1.402866 -50.248962 45.737122 17.654751 -75.001434 -0.002087 33.998486 -8.226624 0.512869 24.700262 -11.482073 -10.715432 0.749104 34.900848 -24.200773 22.745375 57.828876 5.253834 34.830780 8.276567 -0.222803 25.279032 -136.876984 19.793257 0.481563 10.233138 -1.965097 -0.072379 13.400978 2.310024 5.480430 -140.733795 -10.071712 -0.391076 40.370846 2.326322 0.164064 19.195454 -0.687531 -6.027383 
0.000000 4.831345 0.000000 -90.001884 0.000000 0.000000 18.363047 0.084687 -0.140408 6.929636 0.944329 -0.985166 14.783008 0.000000 0.000000 8.998567 0.000000 0.000000 5.904551 18.990278 1.402866 -50.248966 45.737122 17.654749 -75.001434 -0.002089 33.998486 -8.379207 0.553702 24.837425 -11.605499 -10.879298 0.739459 34.900848 -24.200773 22.745375 57.828869 5.253836 34.830780 8.436283 -0.228023 25.489008 -136.876984 19.793257 0.481563 10.233139 -1.965098 -0.072379 13.400979 2.310024 5.480430 -140.733795 -10.071712 -0.391076 40.370850 2.326322 0.164064 19.217142 -0.551626 -6.154168 
0.000000 4.831345 0.000000 -90.001877 0.000000 0.000000 18.363047 0.084687 -0.140408 6.929635 0.944329 -0.985166 14.425727 0.000000 0.000000 8.998567 0.000000 0.000000 5.904551 18.990278 1.402866 -50.248962 45.737122 17.654751 -75.001434 -0.002089 33.998486 -8.531690 0.594900 24.974474 -11.729025 -11.043143 0.729449 34.900845 -24.200773 22.745375 57.828869 5.253834 34.830776 8.595974 -0.233828 25.698959 -136.876984 19.793255 0.481564 10.233138 -1.965097 -0.072379 13.400978 2.310024 5.480430 -140.733795 -10.071712 -0.391076 40.370846 2.326322 0.164064 19.239136 -0.415770 -6.281003 
0.000000 4.831345 0.000000 -90.001877 0.000000 0.000000 18.363047 0.084687 -0.140408 6.929635 0.944329 -0.985166 14.068463 0.000000 0.000000 8.998567 0.000000 0.000000 5.904551 18.990278 1.402866 -50.248962 45.737122 17.654751 -75.001434 -0.002089 33.998486 -8.684074 0.636462 25.111416 -11.852642 -11.206960 0.719074 34.900845 -24.200773 22.745375 57.828876 5.253835 34.830776 8.755636 -0.240218 25.908886 -136.876984 19.793255 0.481564 10.233138 -1.965097 -0.072379 13.400978 2.310024 5.480430 -140.733795 -10.071712 -0.391076 40.370846 2.326322 0.164064 19.261429 -0.279966 -6.407885 
0.000000 4.831345 0.000000 -90.001877 0.000000 0.000000 18.363047 0.084687 -0.140408 6.929635 0.944329 -0.985166 13.711231 0.000000 0.000000 8.998567 0.000000 0.000000 5.904551 18.990278 1.402866 -50.248959 45.737118 17.654751 -75.001434 -0.002089 33.998486 -8.836352 0.678386 25.248238 -11.976358 -11.370751 0.708332 34.900845 -24.200771 22.745375 57.828869 5.253833 34.830776 8.915269 -0.247193 26.118782 -136.876984 19.793255 0.481564 10.233138 -1.965097 -0.072379 13.400976 2.310024 5.480430 -140.733795 -10.071712 -0.391076 40.370846 2.326321 0.164064 19.284025 -0.144214 -6.534817 
0.000000 4.831345 0.000000 -90.001862 0.000000 0.000000 18.363047 0.084687 -0.140408 6.929635 0.944329 -0.985166 13.354032 0.000000 0.000000 8.998567 0.000000 0.000000 5.904551 18.990278 1.402866 -50.248962 45.737122 17.654751 -75.001434 -0.002089 33.998486 -8.988531 0.720673 25.384951 -12.100176 -11.534516 0.697224 34.900845 -24.200771 22.745375 57.828869 5.253831 34.830772 9.074868 -0.254752 26.328655 -136.876968 19.793255 0.481564 10.233138 -1.965097 -0.072379 13.400978 2.310024 5.480430 -140.733795 -10.071712 -0.391076 40.370838 2.326321 0.164064 19.306919 -0.008517 -6.661798 
0.000000 4.831345 0.000000 -90.001877 0.000000 0.000000 18.363047 0.084687 -0.140408 6.929635 0.944329 -0.985166 12.996869 0.000000 0.000000 8.998567 0.000000 0.000000 5.904551 18.990278 1.402866 -50.248962 45.737122 17.654751 -75.001434 -0.002089 33.998486 -9.140600 0.763321 25.521542 -12.224091 -11.698249 0.685748 34.900845 -24.200773 22.745375 57.828869 5.253834 34.830776 9.234426 -0.262895 26.538488 -136.876984 19.793257 0.481563 10.233138 -1.965097 -0.072379 13.400978 2.310024 5.480430 -140.733795 -10.071712 -0.391076 40.370846 2.326321 0.164064 19.330111 0.127126 -6.788829 
0.000000 4.831345 0.000000 -90.001877 0.000000 0.000000 18.363047 0.084687 -0.140408 6.929635 0.944329 -0.985166 13.354031 0.000000 0.000000 8.998567 0.000000 0.000000 5.904551 18.990278 1.402866 -50.248962 45.737122 17.654751 -75.001434 -0.002089 33.998486 -8.988531 0.720673 25.384951 -12.100176 -11.534516 0.697224 34.900845 -24.200773 22.745375 57.828869 5.253834 34.830776 9.074868 -0.254752 26.328655 -136.876984 19.793257 0.481563 10.233138 -1.965097 -0.072379 13.400978 2.310024 5.480430 -140.733795 -10.071712 -0.391076 40.370846 2.326322 0.164064 19.306917 -0.008517 -6.661798 
